<?xml version="1.0" encoding="iso-8859-1"?>
<!-- Generator: Adobe Illustrator 19.0.0, SVG Export Plug-In . SVG Version: 6.00 Build 0)  -->
<svg version="1.1" id="Capa_1" xmlns="http://www.w3.org/2000/svg" xmlns:xlink="http://www.w3.org/1999/xlink" x="0px" y="0px"
	 viewBox="0 0 512.001 512.001" style="enable-background:new 0 0 512.001 512.001;" xml:space="preserve">
<g>
	<g>
		<g>
			<path d="M469.334,42.668H324.267V8.535c0-2.479-1.075-4.837-2.958-6.458c-1.875-1.621-4.375-2.35-6.817-1.983L38.942,40.614
				c-12.475,1.837-21.875,12.725-21.875,25.329V446.06c0,12.604,9.4,23.492,21.875,25.329l275.55,40.521
				c0.417,0.062,0.825,0.092,1.242,0.092c2.033,0,4.017-0.729,5.575-2.075c1.883-1.621,2.958-3.979,2.958-6.458v-34.133h145.067
				c14.117,0,25.6-11.483,25.6-25.6V68.268C494.934,54.151,483.451,42.668,469.334,42.668z M307.201,51.201v59.733v34.133v51.2
				v34.133v51.2v34.133v51.2v34.133v59.733v32.788L41.426,454.506c-4.158-0.613-7.292-4.242-7.292-8.446V65.943
				c0-4.204,3.133-7.833,7.292-8.446l265.775-39.083V51.201z M324.267,119.468h42.667v17.067h-42.667V119.468z M324.267,204.801
				h42.667v17.067h-42.667V204.801z M324.267,290.135h42.667v17.067h-42.667V290.135z M324.267,375.468h42.667v17.067h-42.667
				V375.468z M477.867,443.735c0,4.704-3.825,8.533-8.533,8.533H324.267v-42.667h102.4c9.408,0,17.067-7.654,17.067-17.067v-17.067
				c0-9.413-7.658-17.067-17.067-17.067h-102.4v-34.133h102.4c9.408,0,17.067-7.654,17.067-17.067v-17.067
				c0-9.413-7.658-17.067-17.067-17.067h-102.4v-34.133h102.4c9.408,0,17.067-7.654,17.067-17.067v-17.067
				c0-9.412-7.658-17.067-17.067-17.067h-102.4v-34.133h102.4c9.408,0,17.067-7.654,17.067-17.067v-17.067
				c0-9.413-7.658-17.067-17.067-17.067h-102.4V59.735h145.067c4.708,0,8.533,3.829,8.533,8.533V443.735z M384.001,392.535v-17.067
				h42.667l0.008,17.067H384.001z M384.001,307.201v-17.067h42.667l0.008,17.067H384.001z M384.001,221.868v-17.067h42.667
				l0.008,17.067H384.001z M384.001,136.535v-17.067h42.667l0.008,17.067H384.001z"/>
			<path d="M156.103,256.001l-51.752,62.842c-3,3.637-2.483,9.017,1.158,12.012c1.592,1.308,3.508,1.946,5.417,1.946
				c2.467,0,4.908-1.058,6.592-3.108l49.636-60.272l56.664,68.806c1.683,2.05,4.125,3.108,6.592,3.108
				c1.908,0,3.825-0.638,5.417-1.946c3.642-2.996,4.158-8.375,1.158-12.013l-58.779-71.375l58.779-71.375
				c3-3.638,2.483-9.017-1.158-12.012c-3.65-2.996-9.017-2.471-12.008,1.162l-56.664,68.806l-49.636-60.272
				c-2.983-3.638-8.367-4.162-12.008-1.163c-3.642,2.996-4.158,8.375-1.158,12.012L156.103,256.001z"/>
		</g>
	</g>
</g>
<g>
</g>
<g>
</g>
<g>
</g>
<g>
</g>
<g>
</g>
<g>
</g>
<g>
</g>
<g>
</g>
<g>
</g>
<g>
</g>
<g>
</g>
<g>
</g>
<g>
</g>
<g>
</g>
<g>
</g>
</svg>
